<?xml version="1.0" encoding="UTF-8"?>
<svg width="1200pt" height="1200pt" version="1.1" viewBox="0 0 1200 1200" xmlns="http://www.w3.org/2000/svg">
 <path d="m525 806.26c0 62.109-50.391 112.5-112.5 112.5s-112.5-50.391-112.5-112.5c0-62.109 50.391-112.5 112.5-112.5s112.5 50.391 112.5 112.5"/>
 <path d="m787.5 693.74c-62.016 0-112.5 50.484-112.5 112.5 0 30.094 11.672 58.359 32.906 79.594 21.234 21.234 49.5 32.906 79.594 32.906 62.016 0 112.5-50.484 112.5-112.5 0-30.891-11.859-58.406-34.359-79.547-21.328-21.703-48.188-32.953-78.141-32.953z"/>
 <path d="m787.5 581.26h-375c-124.08 0-225 100.92-225 225 0 124.08 100.92 225 225 225 66.797 0 129.74-29.578 172.69-81.188 7.5938-9.1406 21.984-9.1406 29.578 0 42.938 51.609 105.89 81.188 172.69 81.188 124.08 0 225-100.92 225-225 0-124.08-100.92-225-225-225zm-375 375c-82.688 0-150-67.312-150-150s67.312-150 150-150 150 67.312 150 150-67.312 150-150 150zm375 0c-40.078 0-77.766-15.609-106.08-43.922s-43.922-66-43.922-106.08c0-82.688 67.312-150 150-150 40.266 0 76.359 15.094 104.39 43.641 29.625 27.891 45.609 64.828 45.609 106.36 0 82.688-67.312 150-150 150z"/>
 <path d="m746.81 1065.6c-55.688-8.625-107.06-35.25-146.81-75.938-39.75 40.688-91.125 67.312-146.81 75.938-13.312 2.0625-27 3.1875-40.688 3.1875-1.3125 0-2.4375 0-3.75-0.1875 19.5 33.75 55.875 56.438 97.5 56.438h187.5c41.625 0 78-22.688 97.5-56.438-1.3125 0.1875-2.4375 0.1875-3.75 0.1875-13.688 0-27.375-1.125-40.688-3.1875z"/>
 <path d="m393.74 543.74v0.75c6.1875-0.5625 12.375-0.75 18.75-0.75h375c6.375 0 12.562 0.1875 18.75 0.75v-0.75c0-41.438-33.562-75-75-75h-262.5c-41.438 0-75 33.562-75 75z"/>
 <path d="m712.5 92.812c-0.5625-9.9375-8.8125-17.812-18.75-17.812h-187.5c-9.9375 0-18.188 7.875-18.75 17.812l-16.125 338.44h257.26z"/>
 <path d="m377.44 337.5c7.125 27.75 29.625 49.312 58.125 54.938l1.875-38.438 7.125-147.37 1.6875-37.688c-33.188 1.5-60.75 24.75-68.812 56.062h-171.19c-30.938 0-56.25 25.312-56.25 56.25s25.312 56.25 56.25 56.25z"/>
 <path d="m993.74 225h-171.19c-8.0625-31.312-35.625-54.562-68.812-56.062l1.6875 37.688 7.125 147.37 1.875 38.25c28.5-5.4375 51-27 58.125-54.75h171.19c30.938 0 56.25-25.312 56.25-56.25s-25.312-56.25-56.25-56.25z"/>
</svg>
