<?xml version="1.0" encoding="UTF-8"?>
<svg width="1200pt" height="1200pt" version="1.1" viewBox="0 0 1200 1200" xmlns="http://www.w3.org/2000/svg">
 <path d="m1125 600c0-290-235-525-525-525-85 0-165 20-235 55-20-17.5-47.5-30-77.5-30-62.5 0-112.5 50-112.5 112.5 0 22.5 7.5 40 17.5 57.5-72.5 90-117.5 205-117.5 330 0 290 235 525 525 525 85 0 165-20 235-55 20 20 47.5 30 77.5 30 62.5 0 112.5-50 112.5-112.5 0-22.5-7.5-40-17.5-57.5 72.5-90 117.5-205 117.5-330zm-212.5 275c-62.5 0-112.5 50-112.5 112.5 0 5 0 10 2.5 15-52.5 27.5-112.5 42.5-177.5 47.5v-150c145-12.5 262.5-127.5 272.5-272.5h150c-5 97.5-40 185-97.5 257.5-12.5-7.5-25-10-37.5-10zm-760-300c5-97.5 40-185 97.5-257.5 12.5 5 25 7.5 37.5 7.5 62.5 0 112.5-50 112.5-112.5 0-5 0-10-2.5-15 52.5-27.5 112.5-42.5 177.5-47.5v150c-145 12.5-262.5 127.5-272.5 272.5h-150zm745 0c-5-60-27.5-115-62.5-160l107.5-107.5c62.5 72.5 100 165 105 265h-150zm-272.5-222.5c45 5 87.5 22.5 122.5 47.5l-122.5 122.5zm0 290c7.5-5 12.5-10 17.5-17.5h205c-12.5 117.5-105 212.5-222.5 222.5zm52.5-67.5 122.5-122.5c25 35 42.5 77.5 47.5 122.5zm107.5-212.5c-45-35-100-57.5-160-62.5v-150c100 5 192.5 45 265 105zm-210-10v205c-7.5 5-12.5 10-17.5 17.5h-205c10-117.5 105-212.5 222.5-222.5zm-162.5 347.5c-12.5 0-25 2.5-37.5 7.5-12.5-25-20-55-25-82.5h205c5 7.5 10 12.5 17.5 17.5v205c-30-2.5-57.5-12.5-82.5-25 5-12.5 7.5-25 7.5-37.5 2.5-45-37.5-85-85-85zm-260-75h150c2.5 42.5 15 82.5 35 120-7.5 12.5-12.5 27.5-12.5 42.5 0 47.5 40 87.5 87.5 87.5 15 0 30-5 42.5-12.5 35 20 77.5 32.5 120 35v150c-227.5-12.5-410-195-422.5-422.5z"/>
</svg>
